<svg width="32" height="33" viewBox="0 0 32 33" fill="none" xmlns="http://www.w3.org/2000/svg">
<g id="add_circle_24dp_FFFFFF_FILL1_wght200_GRAD0_opsz24 1">
<path id="Vector" d="M15.3333 22.5H16.6667V17.1667H22V15.8333H16.6667V10.5H15.3333V15.8333H10V17.1667H15.3333V22.5ZM16.0043 28.5C14.345 28.5 12.7849 28.1851 11.324 27.5553C9.86333 26.9256 8.59267 26.0709 7.512 24.9913C6.43133 23.9118 5.57589 22.6422 4.94567 21.1827C4.31522 19.7233 4 18.1639 4 16.5043C4 14.845 4.31489 13.2849 4.94467 11.824C5.57444 10.3633 6.42911 9.09267 7.50867 8.012C8.58822 6.93133 9.85778 6.07589 11.3173 5.44567C12.7767 4.81522 14.3361 4.5 15.9957 4.5C17.655 4.5 19.2151 4.81489 20.676 5.44467C22.1367 6.07445 23.4073 6.92911 24.488 8.00867C25.5687 9.08822 26.4241 10.3578 27.0543 11.8173C27.6848 13.2767 28 14.8361 28 16.4957C28 18.155 27.6851 19.7151 27.0553 21.176C26.4256 22.6367 25.5709 23.9073 24.4913 24.988C23.4118 26.0687 22.1422 26.9241 20.6827 27.5543C19.2233 28.1848 17.6639 28.5 16.0043 28.5Z" fill="#EAEAEA"/>
</g>
</svg>
