<svg width="40" height="41" viewBox="0 0 40 41" fill="none" xmlns="http://www.w3.org/2000/svg">
<g id="arrow_circle_right_24dp_E8EAED_FILL1_wght200_GRAD0_opsz24 1">
<path id="Vector" d="M20 15.0192L14.5192 20.5L20 25.9808L21.1475 24.8333L17.6475 21.3333H25.8333V19.6667H17.6475L21.1475 16.1667L20 15.0192ZM19.9946 5.5C22.0687 5.5 24.0189 5.89361 25.845 6.68083C27.6708 7.46806 29.2592 8.53639 30.61 9.88583C31.9608 11.2353 33.0301 12.8222 33.8179 14.6467C34.606 16.4708 35 18.4201 35 20.4946C35 22.5687 34.6064 24.5189 33.8192 26.345C33.0319 28.1708 31.9636 29.7592 30.6142 31.11C29.2647 32.4608 27.6778 33.5301 25.8533 34.3179C24.0292 35.106 22.0799 35.5 20.0054 35.5C17.9313 35.5 15.9811 35.1064 14.155 34.3192C12.3292 33.5319 10.7408 32.4636 9.39 31.1142C8.03917 29.7647 6.96986 28.1778 6.18209 26.3533C5.39403 24.5292 5 22.5799 5 20.5054C5 18.4313 5.39361 16.4811 6.18084 14.655C6.96806 12.8292 8.03639 11.2408 9.38583 9.89C10.7353 8.53917 12.3222 7.46986 14.1467 6.68209C15.9708 5.89403 17.9201 5.5 19.9946 5.5Z" fill="#09090A"/>
</g>
</svg>
