<svg width="1005" height="1005" viewBox="0 0 1005 1005" fill="none" xmlns="http://www.w3.org/2000/svg">
<mask id="mask0_25_28" style="mask-type:luminance" maskUnits="userSpaceOnUse" x="0" y="0" width="1005" height="1005">
<path d="M0 0H1004.92V1004.92H0V0Z" fill="white"/>
</mask>
<g mask="url(#mask0_25_28)">
<mask id="mask1_25_28" style="mask-type:luminance" maskUnits="userSpaceOnUse" x="0" y="0" width="1005" height="1005">
<path d="M502.458 0C224.958 0 0 224.958 0 502.458C0 779.958 224.958 1004.92 502.458 1004.92C779.958 1004.92 1004.92 779.958 1004.92 502.458C1004.92 224.958 779.958 0 502.458 0Z" fill="white"/>
</mask>
<g mask="url(#mask1_25_28)">
<path d="M0 0H1004.92V1004.92H0V0Z" fill="black"/>
</g>
</g>
<mask id="mask2_25_28" style="mask-type:luminance" maskUnits="userSpaceOnUse" x="149" y="232" width="707" height="540">
<path d="M149 232H855.891V772H149V232Z" fill="white"/>
</mask>
<g mask="url(#mask2_25_28)">
<path d="M747.417 277.63C702.359 256.958 654.047 241.729 603.531 233.005C602.609 232.833 601.693 233.255 601.219 234.099C595.005 245.151 588.12 259.568 583.302 270.901C528.969 262.766 474.911 262.766 421.693 270.901C416.875 259.312 409.739 245.151 403.5 234.099C403.026 233.286 402.104 232.865 401.187 233.005C350.698 241.698 302.385 256.932 257.302 277.63C256.911 277.797 256.578 278.078 256.354 278.443C164.713 415.354 139.609 548.901 151.922 680.792C151.979 681.437 152.338 682.057 152.844 682.448C213.307 726.849 271.875 753.807 329.354 771.677C330.276 771.953 331.25 771.62 331.833 770.859C345.432 752.292 357.552 732.714 367.948 712.125C368.557 710.917 367.974 709.49 366.719 709.01C347.495 701.719 329.187 692.828 311.578 682.729C310.187 681.917 310.073 679.922 311.354 678.969C315.062 676.193 318.766 673.302 322.307 670.385C322.948 669.854 323.838 669.74 324.594 670.078C440.276 722.896 565.526 722.896 679.844 670.078C680.599 669.714 681.49 669.828 682.156 670.359C685.698 673.276 689.406 676.193 693.135 678.969C694.417 679.922 694.333 681.917 692.943 682.729C675.333 693.021 657.026 701.719 637.771 708.984C636.521 709.458 635.963 710.917 636.573 712.125C647.193 732.687 659.312 752.266 672.656 770.833C673.213 771.62 674.219 771.953 675.135 771.677C732.896 753.807 791.463 726.849 851.927 682.448C852.458 682.057 852.792 681.469 852.849 680.823C867.588 528.344 828.161 395.891 748.333 278.474C748.141 278.078 747.807 277.797 747.417 277.63ZM385.224 600.484C350.391 600.484 321.693 568.51 321.693 529.24C321.693 489.969 349.833 457.995 385.224 457.995C420.885 457.995 449.307 490.25 448.75 529.24C448.75 568.51 420.609 600.484 385.224 600.484ZM620.109 600.484C585.281 600.484 556.578 568.51 556.578 529.24C556.578 489.969 584.719 457.995 620.109 457.995C655.771 457.995 684.193 490.25 683.635 529.24C683.635 568.51 655.771 600.484 620.109 600.484Z" fill="white"/>
</g>
</svg>
