<svg width="64" height="64" viewBox="0 0 64 64" fill="none" xmlns="http://www.w3.org/2000/svg">
<rect x="2" y="62" width="60" height="60" rx="30" transform="rotate(-90 2 62)" fill="url(#paint0_linear_911_99241)" fill-opacity="0.6"/>
<rect x="2" y="62" width="60" height="60" rx="30" transform="rotate(-90 2 62)" stroke="url(#paint1_linear_911_99241)" stroke-width="4"/>
<path d="M31.4711 39.534C31.6391 39.798 31.7051 40.038 31.6691 40.254C31.6331 40.47 31.5371 40.65 31.3811 40.794C31.2251 40.95 31.0331 41.046 30.8051 41.082C30.5771 41.13 30.3491 41.106 30.1211 41.01C29.8931 40.926 29.7011 40.758 29.5451 40.506L28.3031 38.508C28.1351 38.232 27.9071 38.022 27.6191 37.878C27.3431 37.746 27.0011 37.68 26.5931 37.68L28.3751 36.978C28.9391 36.978 29.3891 37.08 29.7251 37.284C30.0611 37.476 30.3851 37.818 30.6971 38.31L31.4711 39.534ZM26.6111 37.68C25.3871 37.68 24.3131 37.41 23.3891 36.87C22.4771 36.33 21.7691 35.574 21.2651 34.602C20.7611 33.618 20.5091 32.466 20.5091 31.146C20.5091 30.15 20.6531 29.256 20.9411 28.464C21.2291 27.66 21.6371 26.976 22.1651 26.412C22.7051 25.836 23.3471 25.398 24.0911 25.098C24.8471 24.786 25.6871 24.63 26.6111 24.63C27.8471 24.63 28.9211 24.9 29.8331 25.44C30.7451 25.968 31.4531 26.718 31.9571 27.69C32.4611 28.662 32.7131 29.808 32.7131 31.128C32.7131 32.124 32.5691 33.024 32.2811 33.828C31.9931 34.632 31.5791 35.322 31.0391 35.898C30.5111 36.474 29.8691 36.918 29.1131 37.23C28.3691 37.53 27.5351 37.68 26.6111 37.68ZM26.6111 35.7C27.3911 35.7 28.0511 35.52 28.5911 35.16C29.1431 34.8 29.5631 34.278 29.8511 33.594C30.1511 32.91 30.3011 32.094 30.3011 31.146C30.3011 29.706 29.9771 28.59 29.3291 27.798C28.6931 27.006 27.7871 26.61 26.6111 26.61C25.8431 26.61 25.1831 26.79 24.6311 27.15C24.0791 27.498 23.6531 28.014 23.3531 28.698C23.0651 29.37 22.9211 30.186 22.9211 31.146C22.9211 32.574 23.2451 33.69 23.8931 34.494C24.5411 35.298 25.4471 35.7 26.6111 35.7ZM36.4779 37.5C36.1659 37.5 35.9199 37.416 35.7399 37.248C35.5719 37.068 35.4879 36.828 35.4879 36.528C35.4879 36.216 35.5719 35.982 35.7399 35.826C35.9199 35.67 36.1659 35.592 36.4779 35.592H38.4939V26.754H39.6099L36.9639 28.356C36.7359 28.488 36.5199 28.542 36.3159 28.518C36.1239 28.482 35.9559 28.398 35.8119 28.266C35.6799 28.122 35.5899 27.954 35.5419 27.762C35.4939 27.57 35.5059 27.378 35.5779 27.186C35.6619 26.982 35.8179 26.814 36.0459 26.682L38.5299 25.188C38.7699 25.044 39.0099 24.924 39.2499 24.828C39.4899 24.72 39.7119 24.666 39.9159 24.666C40.1679 24.666 40.3779 24.738 40.5459 24.882C40.7139 25.014 40.7979 25.236 40.7979 25.548V35.592H42.6339C42.9459 35.592 43.1859 35.67 43.3539 35.826C43.5339 35.982 43.6239 36.216 43.6239 36.528C43.6239 36.84 43.5339 37.08 43.3539 37.248C43.1859 37.416 42.9459 37.5 42.6339 37.5H36.4779Z" fill="#09090A"/>
<defs>
<linearGradient id="paint0_linear_911_99241" x1="64" y1="96" x2="0" y2="96" gradientUnits="userSpaceOnUse">
<stop stop-color="#03BF77"/>
<stop offset="1" stop-color="#7AF861"/>
</linearGradient>
<linearGradient id="paint1_linear_911_99241" x1="32" y1="64" x2="32" y2="128" gradientUnits="userSpaceOnUse">
<stop stop-color="#03BF77"/>
<stop offset="1" stop-color="#F0F076"/>
</linearGradient>
</defs>
</svg>
