<svg width="65" height="64" viewBox="0 0 65 64" fill="none" xmlns="http://www.w3.org/2000/svg">
<rect x="2.3335" y="62" width="60" height="60" rx="30" transform="rotate(-90 2.3335 62)" fill="url(#paint0_linear_911_99249)" fill-opacity="0.6"/>
<rect x="2.3335" y="62" width="60" height="60" rx="30" transform="rotate(-90 2.3335 62)" stroke="url(#paint1_linear_911_99249)" stroke-width="4"/>
<path d="M31.8046 39.534C31.9726 39.798 32.0386 40.038 32.0026 40.254C31.9666 40.47 31.8706 40.65 31.7146 40.794C31.5586 40.95 31.3666 41.046 31.1386 41.082C30.9106 41.13 30.6826 41.106 30.4546 41.01C30.2266 40.926 30.0346 40.758 29.8786 40.506L28.6366 38.508C28.4686 38.232 28.2406 38.022 27.9526 37.878C27.6766 37.746 27.3346 37.68 26.9266 37.68L28.7086 36.978C29.2726 36.978 29.7226 37.08 30.0586 37.284C30.3946 37.476 30.7186 37.818 31.0306 38.31L31.8046 39.534ZM26.9446 37.68C25.7206 37.68 24.6466 37.41 23.7226 36.87C22.8106 36.33 22.1026 35.574 21.5986 34.602C21.0946 33.618 20.8426 32.466 20.8426 31.146C20.8426 30.15 20.9866 29.256 21.2746 28.464C21.5626 27.66 21.9706 26.976 22.4986 26.412C23.0386 25.836 23.6806 25.398 24.4246 25.098C25.1806 24.786 26.0206 24.63 26.9446 24.63C28.1806 24.63 29.2546 24.9 30.1666 25.44C31.0786 25.968 31.7866 26.718 32.2906 27.69C32.7946 28.662 33.0466 29.808 33.0466 31.128C33.0466 32.124 32.9026 33.024 32.6146 33.828C32.3266 34.632 31.9126 35.322 31.3726 35.898C30.8446 36.474 30.2026 36.918 29.4466 37.23C28.7026 37.53 27.8686 37.68 26.9446 37.68ZM26.9446 35.7C27.7246 35.7 28.3846 35.52 28.9246 35.16C29.4766 34.8 29.8966 34.278 30.1846 33.594C30.4846 32.91 30.6346 32.094 30.6346 31.146C30.6346 29.706 30.3106 28.59 29.6626 27.798C29.0266 27.006 28.1206 26.61 26.9446 26.61C26.1766 26.61 25.5166 26.79 24.9646 27.15C24.4126 27.498 23.9866 28.014 23.6866 28.698C23.3986 29.37 23.2546 30.186 23.2546 31.146C23.2546 32.574 23.5786 33.69 24.2266 34.494C24.8746 35.298 25.7806 35.7 26.9446 35.7ZM36.3974 37.5C36.0134 37.5 35.7314 37.416 35.5514 37.248C35.3834 37.068 35.2994 36.81 35.2994 36.474C35.2994 36.27 35.3534 36.072 35.4614 35.88C35.5694 35.688 35.7254 35.484 35.9294 35.268L39.5474 31.416C40.0994 30.84 40.4954 30.318 40.7354 29.85C40.9754 29.37 41.0954 28.89 41.0954 28.41C41.0954 27.81 40.9034 27.354 40.5194 27.042C40.1474 26.73 39.6014 26.574 38.8814 26.574C38.4734 26.574 38.0654 26.634 37.6574 26.754C37.2494 26.862 36.8354 27.054 36.4154 27.33C36.1994 27.474 35.9954 27.534 35.8034 27.51C35.6234 27.486 35.4614 27.408 35.3174 27.276C35.1854 27.144 35.0954 26.982 35.0474 26.79C34.9994 26.598 35.0054 26.406 35.0654 26.214C35.1374 26.01 35.2814 25.836 35.4974 25.692C36.0134 25.344 36.5894 25.08 37.2254 24.9C37.8734 24.72 38.5214 24.63 39.1694 24.63C40.0814 24.63 40.8494 24.768 41.4734 25.044C42.0974 25.32 42.5714 25.722 42.8954 26.25C43.2194 26.778 43.3814 27.42 43.3814 28.176C43.3814 28.68 43.2974 29.172 43.1294 29.652C42.9734 30.132 42.7274 30.618 42.3914 31.11C42.0674 31.602 41.6414 32.124 41.1134 32.676L37.7294 36.204V35.592H43.0214C43.3454 35.592 43.5914 35.67 43.7594 35.826C43.9274 35.982 44.0114 36.216 44.0114 36.528C44.0114 36.84 43.9274 37.08 43.7594 37.248C43.5914 37.416 43.3454 37.5 43.0214 37.5H36.3974Z" fill="#09090A"/>
<defs>
<linearGradient id="paint0_linear_911_99249" x1="64.3335" y1="96" x2="0.333496" y2="96" gradientUnits="userSpaceOnUse">
<stop stop-color="#03BF77"/>
<stop offset="1" stop-color="#7AF861"/>
</linearGradient>
<linearGradient id="paint1_linear_911_99249" x1="32.3335" y1="64" x2="32.3335" y2="128" gradientUnits="userSpaceOnUse">
<stop stop-color="#03BF77"/>
<stop offset="1" stop-color="#F0F076"/>
</linearGradient>
</defs>
</svg>
