<svg width="65" height="64" viewBox="0 0 65 64" fill="none" xmlns="http://www.w3.org/2000/svg">
<rect x="2.6665" y="62" width="60" height="60" rx="30" transform="rotate(-90 2.6665 62)" fill="url(#paint0_linear_911_99257)" fill-opacity="0.6"/>
<rect x="2.6665" y="62" width="60" height="60" rx="30" transform="rotate(-90 2.6665 62)" stroke="url(#paint1_linear_911_99257)" stroke-width="4"/>
<path d="M32.1376 39.534C32.3056 39.798 32.3716 40.038 32.3356 40.254C32.2996 40.47 32.2036 40.65 32.0476 40.794C31.8916 40.95 31.6996 41.046 31.4716 41.082C31.2436 41.13 31.0156 41.106 30.7876 41.01C30.5596 40.926 30.3676 40.758 30.2116 40.506L28.9696 38.508C28.8016 38.232 28.5736 38.022 28.2856 37.878C28.0096 37.746 27.6676 37.68 27.2596 37.68L29.0416 36.978C29.6056 36.978 30.0556 37.08 30.3916 37.284C30.7276 37.476 31.0516 37.818 31.3636 38.31L32.1376 39.534ZM27.2776 37.68C26.0536 37.68 24.9796 37.41 24.0556 36.87C23.1436 36.33 22.4356 35.574 21.9316 34.602C21.4276 33.618 21.1756 32.466 21.1756 31.146C21.1756 30.15 21.3196 29.256 21.6076 28.464C21.8956 27.66 22.3036 26.976 22.8316 26.412C23.3716 25.836 24.0136 25.398 24.7576 25.098C25.5136 24.786 26.3536 24.63 27.2776 24.63C28.5136 24.63 29.5876 24.9 30.4996 25.44C31.4116 25.968 32.1196 26.718 32.6236 27.69C33.1276 28.662 33.3796 29.808 33.3796 31.128C33.3796 32.124 33.2356 33.024 32.9476 33.828C32.6596 34.632 32.2456 35.322 31.7056 35.898C31.1776 36.474 30.5356 36.918 29.7796 37.23C29.0356 37.53 28.2016 37.68 27.2776 37.68ZM27.2776 35.7C28.0576 35.7 28.7176 35.52 29.2576 35.16C29.8096 34.8 30.2296 34.278 30.5176 33.594C30.8176 32.91 30.9676 32.094 30.9676 31.146C30.9676 29.706 30.6436 28.59 29.9956 27.798C29.3596 27.006 28.4536 26.61 27.2776 26.61C26.5096 26.61 25.8496 26.79 25.2976 27.15C24.7456 27.498 24.3196 28.014 24.0196 28.698C23.7316 29.37 23.5876 30.186 23.5876 31.146C23.5876 32.574 23.9116 33.69 24.5596 34.494C25.2076 35.298 26.1136 35.7 27.2776 35.7ZM39.4844 37.68C38.8364 37.68 38.1644 37.596 37.4684 37.428C36.7724 37.26 36.1664 37.008 35.6504 36.672C35.4104 36.516 35.2484 36.336 35.1644 36.132C35.0804 35.928 35.0564 35.736 35.0924 35.556C35.1404 35.364 35.2304 35.202 35.3624 35.07C35.5064 34.938 35.6804 34.86 35.8844 34.836C36.1004 34.812 36.3344 34.866 36.5864 34.998C37.0784 35.262 37.5524 35.454 38.0084 35.574C38.4644 35.682 38.9324 35.736 39.4124 35.736C39.9404 35.736 40.3844 35.664 40.7444 35.52C41.1044 35.376 41.3744 35.16 41.5544 34.872C41.7464 34.584 41.8424 34.236 41.8424 33.828C41.8424 33.228 41.6384 32.784 41.2304 32.496C40.8344 32.196 40.2524 32.046 39.4844 32.046H38.3324C37.9964 32.046 37.7384 31.962 37.5584 31.794C37.3904 31.626 37.3064 31.392 37.3064 31.092C37.3064 30.792 37.3904 30.558 37.5584 30.39C37.7384 30.222 37.9964 30.138 38.3324 30.138H39.2684C39.7244 30.138 40.1144 30.066 40.4384 29.922C40.7624 29.766 41.0144 29.55 41.1944 29.274C41.3744 28.998 41.4644 28.662 41.4644 28.266C41.4644 27.714 41.2784 27.294 40.9064 27.006C40.5464 26.718 40.0184 26.574 39.3224 26.574C38.8784 26.574 38.4584 26.628 38.0624 26.736C37.6784 26.832 37.2524 27.018 36.7844 27.294C36.5684 27.426 36.3584 27.48 36.1544 27.456C35.9624 27.432 35.8004 27.354 35.6684 27.222C35.5364 27.09 35.4464 26.934 35.3984 26.754C35.3504 26.562 35.3624 26.37 35.4344 26.178C35.5064 25.974 35.6564 25.8 35.8844 25.656C36.4004 25.32 36.9704 25.068 37.5944 24.9C38.2184 24.72 38.8604 24.63 39.5204 24.63C40.3964 24.63 41.1464 24.768 41.7704 25.044C42.3944 25.308 42.8684 25.692 43.1924 26.196C43.5284 26.688 43.6964 27.288 43.6964 27.996C43.6964 28.5 43.6004 28.962 43.4084 29.382C43.2164 29.79 42.9464 30.138 42.5984 30.426C42.2504 30.714 41.8304 30.918 41.3384 31.038V30.822C42.2024 30.966 42.8744 31.326 43.3544 31.902C43.8344 32.466 44.0744 33.174 44.0744 34.026C44.0744 34.77 43.8884 35.418 43.5164 35.97C43.1444 36.522 42.6164 36.948 41.9324 37.248C41.2484 37.536 40.4324 37.68 39.4844 37.68Z" fill="#09090A"/>
<defs>
<linearGradient id="paint0_linear_911_99257" x1="64.6665" y1="96" x2="0.666504" y2="96" gradientUnits="userSpaceOnUse">
<stop stop-color="#03BF77"/>
<stop offset="1" stop-color="#7AF861"/>
</linearGradient>
<linearGradient id="paint1_linear_911_99257" x1="32.6665" y1="64" x2="32.6665" y2="128" gradientUnits="userSpaceOnUse">
<stop stop-color="#03BF77"/>
<stop offset="1" stop-color="#F0F076"/>
</linearGradient>
</defs>
</svg>
