<svg width="24" height="25" viewBox="0 0 24 25" fill="none" xmlns="http://www.w3.org/2000/svg">
<g id="open_in_new_24dp_FFFFFF_FILL1_wght200_GRAD0_opsz24 (1) 1">
<path id="Vector" d="M5.6155 20.8335C5.15517 20.8335 4.77083 20.6793 4.4625 20.371C4.15417 20.0627 4 19.6783 4 19.218V6.449C4 5.98866 4.15417 5.60433 4.4625 5.296C4.77083 4.98766 5.15517 4.8335 5.6155 4.8335H11.2308V5.8335H5.6155C5.4615 5.8335 5.32042 5.89758 5.19225 6.02575C5.06408 6.15391 5 6.295 5 6.449V19.218C5 19.372 5.06408 19.5131 5.19225 19.6412C5.32042 19.7694 5.4615 19.8335 5.6155 19.8335H18.3845C18.5385 19.8335 18.6796 19.7694 18.8077 19.6412C18.9359 19.5131 19 19.372 19 19.218V13.6027H20V19.218C20 19.6783 19.8458 20.0627 19.5375 20.371C19.2292 20.6793 18.8448 20.8335 18.3845 20.8335H5.6155ZM9.7385 15.8027L9.03075 15.095L18.2923 5.8335H14V4.8335H20V10.8335H19V6.54125L9.7385 15.8027Z" fill="white"/>
</g>
</svg>
