<svg width="32" height="32" viewBox="0 0 32 32" fill="none" xmlns="http://www.w3.org/2000/svg">
<g id="open_in_new_24dp_FFFFFF_FILL1_wght200_GRAD0_opsz24 1">
<path id="Vector" d="M7.48798 26.6668C6.87421 26.6668 6.36176 26.4613 5.95065 26.0502C5.53954 25.6391 5.33398 25.1266 5.33398 24.5128V7.4875C5.33398 6.87372 5.53954 6.36127 5.95065 5.95016C6.36176 5.53905 6.87421 5.3335 7.48798 5.3335H14.975V6.66683H7.48798C7.28265 6.66683 7.09454 6.75227 6.92365 6.92316C6.75276 7.09405 6.66732 7.28216 6.66732 7.4875V24.5128C6.66732 24.7182 6.75276 24.9063 6.92365 25.0772C7.09454 25.2481 7.28265 25.3335 7.48798 25.3335H24.5133C24.7187 25.3335 24.9068 25.2481 25.0777 25.0772C25.2485 24.9063 25.334 24.7182 25.334 24.5128V17.0258H26.6673V24.5128C26.6673 25.1266 26.4618 25.6391 26.0507 26.0502C25.6395 26.4613 25.1271 26.6668 24.5133 26.6668H7.48798ZM12.9853 19.9592L12.0417 19.0155L24.3903 6.66683H18.6673V5.3335H26.6673V13.3335H25.334V7.6105L12.9853 19.9592Z" fill="url(#paint0_linear_776_72637)"/>
</g>
<defs>
<linearGradient id="paint0_linear_776_72637" x1="16.0007" y1="5.3335" x2="16.0007" y2="26.6668" gradientUnits="userSpaceOnUse">
<stop stop-color="#03BF77"/>
<stop offset="1" stop-color="#7AF861"/>
</linearGradient>
</defs>
</svg>
