<svg width="24" height="24" viewBox="-3 -3 32 32" fill="none" xmlns="http://www.w3.org/2000/svg">
<g id="do_not_disturb_on_24dp_E8EAED_FILL1_wght200_GRAD0_opsz24 1" clip-path="url(#clip0_825_73419)">
<path id="Vector" d="M6 12.6667H18V11.3333H6V12.6667ZM12.0043 24C10.345 24 8.78489 23.6851 7.324 23.0553C5.86333 22.4256 4.59267 21.5709 3.512 20.4913C2.43133 19.4118 1.57589 18.1422 0.945667 16.6827C0.315222 15.2233 0 13.6639 0 12.0043C0 10.345 0.314889 8.78489 0.944667 7.324C1.57444 5.86333 2.42911 4.59267 3.50867 3.512C4.58822 2.43133 5.85778 1.57589 7.31733 0.945667C8.77667 0.315222 10.3361 0 11.9957 0C13.655 0 15.2151 0.31489 16.676 0.944668C18.1367 1.57445 19.4073 2.42911 20.488 3.50867C21.5687 4.58822 22.4241 5.85778 23.0543 7.31733C23.6848 8.77667 24 10.3361 24 11.9957C24 13.655 23.6851 15.2151 23.0553 16.676C22.4256 18.1367 21.5709 19.4073 20.4913 20.488C19.4118 21.5687 18.1422 22.4241 16.6827 23.0543C15.2233 23.6848 13.6639 24 12.0043 24Z" fill="#E8EAED"/>
</g>
<defs>
<clipPath id="clip0_825_73419">
<rect width="24" height="24" fill="white"/>
</clipPath>
</defs>
</svg>
