<svg width="40" height="41" viewBox="0 0 40 41" fill="none" xmlns="http://www.w3.org/2000/svg">
<g id="contact_support_24dp_FFFFFF_FILL1_wght200_GRAD0_opsz24 1">
<path id="Vector" d="M21.666 34.2821L21.5698 30.5H19.166C15.6916 30.5 12.7396 29.2853 10.3102 26.8558C7.88074 24.4264 6.66602 21.4744 6.66602 18C6.66602 14.5256 7.88074 11.5736 10.3102 9.14417C12.7396 6.71472 15.6916 5.5 19.166 5.5C20.9032 5.5 22.5299 5.82528 24.046 6.47583C25.5618 7.12667 26.8855 8.01778 28.0168 9.14917C29.1482 10.2806 30.0394 11.6042 30.6902 13.12C31.3407 14.6361 31.666 16.2628 31.666 18C31.666 19.6986 31.4166 21.33 30.9177 22.8942C30.4188 24.4583 29.7287 25.9369 28.8473 27.33C27.9659 28.7233 26.9103 30.0065 25.6806 31.1796C24.4509 32.3526 23.1127 33.3868 21.666 34.2821ZM19.2206 26.4521C19.5645 26.4521 19.855 26.3335 20.0923 26.0962C20.3295 25.859 20.4481 25.5683 20.4481 25.2242C20.4481 24.8803 20.3295 24.5897 20.0923 24.3525C19.855 24.1153 19.5645 23.9967 19.2206 23.9967C18.8764 23.9967 18.5857 24.1153 18.3485 24.3525C18.1116 24.5897 17.9931 24.8803 17.9931 25.2242C17.9931 25.5683 18.1116 25.859 18.3485 26.0962C18.5857 26.3335 18.8764 26.4521 19.2206 26.4521ZM18.4931 21.5771H19.9673C20.01 20.8932 20.1414 20.3525 20.3614 19.955C20.5817 19.5578 21.1042 18.9467 21.9289 18.1217C22.4075 17.6431 22.7868 17.1549 23.0668 16.6571C23.3466 16.1593 23.4864 15.5878 23.4864 14.9425C23.4864 13.7394 23.0714 12.7944 22.2414 12.1075C21.4112 11.4206 20.4074 11.0771 19.2302 11.0771C18.2002 11.0771 17.3273 11.3586 16.6114 11.9217C15.8956 12.4844 15.371 13.1558 15.0377 13.9358L16.4098 14.4679C16.6339 13.9743 16.9618 13.525 17.3935 13.12C17.8252 12.7153 18.4374 12.5129 19.2302 12.5129C20.1724 12.5129 20.8684 12.7693 21.3181 13.2821C21.7681 13.7949 21.9931 14.3547 21.9931 14.9617C21.9931 15.5192 21.8488 15.9908 21.5602 16.3767C21.2719 16.7622 20.9012 17.1815 20.4481 17.6346C19.6467 18.3399 19.1205 18.9729 18.8693 19.5337C18.6185 20.0946 18.4931 20.7757 18.4931 21.5771Z" fill="#EAEAEA"/>
</g>
</svg>
